
<global>
amp_veltrack=0
ampeg_release=0.45
</global>

<group>
group_label=PP
lpc_hicc1=42
lpc_locc1=0

<region>
hikey=a3
hivel=127
lokey=g#3
lovel=1
lpc=HoAJQb+ZsMGz+8ZBs2h5wfRf3UDxj5HAIPeQQDgGkcD49nFAhykLwF9Qbb7z+PE/D1GIvzEKj7+NcztA375owGIhcEDGdiXAEjCbP9SN774wKOS+KaLNP3sJw78jFRc/
lpc_rms=-34.63
pitch_keycenter=a3
sample=Soloviolin2_tremolo_PP_A3.opus
</region>

<region>
hikey=a4
hivel=127
lokey=g#4
lovel=1
lpc=0PUaQcNUvsHPDcRBjsFawReKmUAh4A3AHezVP0/Udb/vhss/GTZCwBm2AECACu8/qhdZwAhNpD8zwZ0/603tvzdaMEAQdmPA7lIlQDuRQL+2JZK/veQZQP5EKsDfXbc/
lpc_rms=-29.87
pitch_keycenter=a4
sample=Soloviolin2_tremolo_PP_A4.opus
</region>

<region>
hikey=a5
hivel=127
lokey=g#5
lovel=1
lpc=kU62QDevB8Gj6RVBU3+twPzwQECaaKE+oOY5Pu+L4r5LPzRACnPxv0m0A0AtKh6/JxIMQLI0y7+FWcc/KCPJP0HY+L/XiTFA9Z5NvxItuz8N1YS/LcsrQKdP6L+9wBBA
lpc_rms=-32.13
pitch_keycenter=a5
sample=Soloviolin2_tremolo_PP_A5.opus
</region>

<region>
hikey=a6
hivel=127
lokey=g#6
lovel=1
lpc=NBsTQf0vEsFeTKBABhORv8zdG783A5o/lt+zv4iafb8mk2BANkiYv2LhJj6sWP68VNv/P3wJwsCESOu+fT+mQCESocBo0IdAhJoiwI8e5T+1+5Y/S6xqv2b1nr8HvIA/
lpc_rms=-34.52
pitch_keycenter=a6
sample=Soloviolin2_tremolo_PP_A6.opus
</region>

<region>
hikey=b3
hivel=127
lokey=a#3
lovel=1
lpc=UNMuQa577cE42g1CItHGwfjLUUEP7w7BNYgCQU8z8cBX0M5AMKlzwBM9jb+28JJA7/RLwDoVrL8T7JZAdbaiwOjynEDapn3ACD77P4b+ib4LezS/HhCWP2VgaL/EI0M+
lpc_rms=-32.52
pitch_keycenter=b3
sample=Soloviolin2_tremolo_PP_B3.opus
</region>

<region>
hikey=b4
hivel=127
lokey=a#4
lovel=1
lpc=pZbKQNdXeMHaPpdBT55kwaww/UBmLJDABAqBQFj1jcBDLWtAsiEPwCT0mj+7hQW/IMt0P/Ei1b8kHE1ALo1vwOC4F0B5Xk++ifgQvsctGL+CSbq+LRvFPyUXub97DQI/
lpc_rms=-33.13
pitch_keycenter=b4
sample=Soloviolin2_tremolo_PP_B4.opus
</region>

<region>
hikey=b5
hivel=127
lokey=a#5
lovel=1
lpc=+8duQbAFk8FcO3lBjHsgwYI7wkAguDDAZyxvQGIjy8AHeRFBUO4NwZBaFkFB9hTBNI4UQQQtBcEb2hJB0JYIwZkpAUFP+ejAmfXCQEZECMBOjL8/LzdbwBxj1kCxvgrB
lpc_rms=-28.33
pitch_keycenter=b5
sample=Soloviolin2_tremolo_PP_B5.opus
</region>

<region>
hikey=E7
hivel=127
lokey=a#6
lovel=1
lpc=OjxzQeYKi8HyMFVBNS8QwVGIp0ARnd28KYaGPBHhk8BrPvlACsBkwFqL2z/NBPk+SXlNwX01SEE+eOXAiL+LQDwFn785Bdu/RHJeP4+li0CwXb3Am1L+P0Nw8b1t0SO/
lpc_rms=-28.85
pitch_keycenter=B6
sample=Soloviolin2_tremolo_PP_B6.opus
</region>

<region>
hikey=c#4
hivel=127
lokey=c4
lovel=1
lpc=BljjQT49ocLtQMJCeA2Awjdu1EHS+mTBb1BYQQWKX8FXgYFBJQiPwW62LEFOmBpAK2rMwGX9676hGhRBMZ88wVoIMUFm7d3AofKxvyblCUFp/B3BZkrSQO//OcCDJNI+
lpc_rms=-27.55
pitch_keycenter=c#4
sample=Soloviolin2_tremolo_PP_C#4.opus
</region>

<region>
hikey=c#5
hivel=127
lokey=c5
lovel=1
lpc=yrpVQSmU+sH8aQZC4i+8wVRjR0HNmGjAU5f9v29AWUBz40zAt9gvQCTIGsAnf3pAYv0rwPiDqr9hd6lAO8ScwJZa/j8wIH2/RtYRQDcxGcCUbpo+FV69P5T9GsDl8wZA
lpc_rms=-27.20
pitch_keycenter=c#5
sample=Soloviolin2_tremolo_PP_C#5.opus
</region>

<region>
hikey=c#6
hivel=127
lokey=c6
lovel=1
lpc=5TygQW9+ycGsR5lB1tBQwQRcAEGrG0LAay8dQNqOIsAjlE1AdKrAv9gyiUBB0ADBF7JNQY29VMEaQDFB+2CawMTPE0Aj/pW/oBLrP+ES2r7oBAlAlm4uwc8CD0DQF0BA
lpc_rms=-27.24
pitch_keycenter=c#6
sample=Soloviolin2_tremolo_PP_C#6.opus
</region>

<region>
hikey=d#4
hivel=127
lokey=d4
lovel=1
lpc=/s4SQY06wcEYOuRB6oagwcZ1JEGKnovAo+9FPx5jNr/ZixtAAHs4wJsi4D/bkki/t3/KP5yakcBFbepAYp3JwNIdlUCnE4HAz6UuQMEUs79TRfk+tgd8P2lxBcDZtY8/
lpc_rms=-37.18
pitch_keycenter=d#4
sample=Soloviolin2_tremolo_PP_D#4.opus
</region>

<region>
hikey=d#5
hivel=127
lokey=d5
lovel=1
lpc=Ijz5QBIOmcEBIK1BgE5ewR/Yx0A89te/Vtdkv3c1VT1jyVVAq5KfwDvWgkCaYri/VfjAv2ujJED028y+LTHKvzLVI0CFHlXA7od7QH13W8DKyDJAI+mrv+pMSz1/Vwk/
lpc_rms=-31.54
pitch_keycenter=d#5
sample=Soloviolin2_tremolo_PP_D#5.opus
</region>

<region>
hikey=d#6
hivel=127
lokey=d6
lovel=1
lpc=va0hQWUmR8H4TxhBrSWowNnugUBJM+i/hFoDQMuyFMBAsyBAYDaSv3/LiT9ez6G/qUoHQLRvrL9MkXs/1teOvipOlT+kvuq/UrNWQFrkKsEr+xFBgC+QwD9CxT/g14G/
lpc_rms=-31.82
pitch_keycenter=d#6
sample=Soloviolin2_tremolo_PP_D#6.opus
</region>

<region>
hikey=f4
hivel=127
lokey=e4
lovel=1
lpc=ftz9QNYKpMEW07xBzU6BwbPTA0H4AkfAdqKYvzDbEUAjLsI+kmPmv+7ZCr3XhqM/q6lwP1KChsCVup1AS3FKwIP3HUB0dxnApvaUP7KO9LxitCS/jxnsP3kXH8DEQZ8/
lpc_rms=-33.77
pitch_keycenter=f4
sample=Soloviolin2_tremolo_PP_F4.opus
</region>

<region>
hikey=f5
hivel=127
lokey=e5
lovel=1
lpc=CGnAQH/ZVsEZgHFB6Is6wVGAy0BXeLu+ZyYzwG1YKkCK7wO+rlbavzDoEUA4fKi/sCw7Prgqrr79KqQ/Y4J9v92DiT/ntZG/m+txP1oUrD5P3em/QEoNQBs/wL8LWnM/
lpc_rms=-34.25
pitch_keycenter=f5
sample=Soloviolin2_tremolo_PP_F5.opus
</region>

<region>
hikey=f6
hivel=127
lokey=e6
lovel=1
lpc=mowsQRuORcHwa8BAP+0Ev/q8mT8tka6/ZZHxPmmYMr8depE/THcOv07EWz9cEv6+78mXPxeuJr8VepA/v/mCv8l5HUDIOjjBJjgpQU7oK8BNLa6/kj7UPsL5UD79528/
lpc_rms=-33.77
pitch_keycenter=f6
sample=Soloviolin2_tremolo_PP_F6.opus
</region>

<region>
hivel=127
key=g3
lovel=1
lpc=xNYqQTFI9cGulR9CE8XtwQhSUkGRhy/AXHf4PVDwFMAzRJJA1mJGwAG5t78LyGJAJVUCv4zheMB3UMVA07K7wD4om0CdBmbAW7UFQMbjkL5J9i+/E1G1PuDLED+SAvK+
lpc_rms=-34.65
sample=Soloviolin2_tremolo_PP_G3.opus
</region>

<region>
hikey=g4
hivel=127
lokey=f#4
lovel=1
lpc=IckVQbQgucFPG8VBFAlqwWKev0Azo03AlRoPQK1MCMDP0UFA7556wGfxxj9TwDVAFHNUwAonU7/GxJtAYUWXwDKycECsMD7ABnG8PuCH1D/C1We/n5K0vkp6wj1Ra50+
lpc_rms=-30.30
pitch_keycenter=g4
sample=Soloviolin2_tremolo_PP_G4.opus
</region>

<region>
hikey=g5
hivel=127
lokey=f#5
lovel=1
lpc=62m8QFk8AMEx7M1AUNeBwM19H0Bun2O9X4SJPzKuqT7WVALAoNAZQLY3A8DPlidA3IcKvptn/D5XyhC/M58HPWvRFD45q44/zCV0PwjuIr4BZjC/kJ+jP9gYBsDANjdA
lpc_rms=-32.94
pitch_keycenter=g5
sample=Soloviolin2_tremolo_PP_G5.opus
</region>

<region>
hikey=g6
hivel=127
lokey=f#6
lovel=1
lpc=aPFzQaRWjcHgIRpBWVz9v6Io/j8qQWTAvXCvQIPnnsDJeg5A5481v03FpT9VW6S+e4IWQE0hD8AED5dAGph1wfBfPkFs4IG/Wf8MwD/I0T5bFi1Az18lwPg6GUBW0nk/
lpc_rms=-30.88
pitch_keycenter=g6
sample=Soloviolin2_tremolo_PP_G6.opus
</region>
</group>

<group>
group_label=MF
lpc_hicc1=84
lpc_locc1=43

<region>
hikey=a3
hivel=127
lokey=g#3
lovel=1
lpc=5DoJQdpOucFLEuZB+DCpwW5zKkHgxJfAFHwcQBs8G8B9XiZA4afSvyfERD/sUcW/XbIvQK2g+b9AQpY+QIVyP24ynr8DmnE/9TseP5ju3r/as6G9Smc7QK3nUsBjH64/
lpc_rms=-25.56
pitch_keycenter=a3
sample=Soloviolin2_tremolo_MF_A3.opus
</region>

<region>
hikey=a4
hivel=127
lokey=g#4
lovel=1
lpc=4y4bQWHb28EUARJCSjzxwUkBoUFWrH3B8rlJQVOs/MDa2K9AJKu4wOMMh0Ar2N++h77ev0sRIUAzjy3AQf0uQCQtB8AfSbM/7XpevrW3Eb/SlHC/aR0oQP8fCMCF+yo/
lpc_rms=-23.68
pitch_keycenter=a4
sample=Soloviolin2_tremolo_MF_A4.opus
</region>

<region>
hikey=a5
hivel=127
lokey=g#5
lovel=1
lpc=dgEAQWTgLsGbyURBInPkwAaDwUD5jEXApt6dQLXgWMC9QH5AA50lPiZ9Qz3x/ZM/7ngNQGXlsb/fEjdA7YfWPnW8Wj1zdq4/0xLzP47EM78VMZE/zI8xQCInJsB9s4NA
lpc_rms=-16.10
pitch_keycenter=a5
sample=Soloviolin2_tremolo_MF_A5.opus
</region>

<region>
hikey=a6
hivel=127
lokey=g#6
lovel=1
lpc=7hmMQQ/eV8F7GO1AMkyXv4PgQ7+H+I1A/3+LwPAG57/peew/3NLgPyvdvT/dwgi/4t+IQPb+G8G3ZqPAQicwQffPDsE/9s9AbApFwKmdkL7wQ8JAgG3mPGJYSr/7mXe/
lpc_rms=-17.42
pitch_keycenter=a6
sample=Soloviolin2_tremolo_MF_A6.opus
</region>

<region>
hikey=b3
hivel=127
lokey=a#3
lovel=1
lpc=j0BYQfsNE8JYpjNCANYBwklXe0GNtQbBC0LdQGDR18AoMddAvwy5wBnSRUDZq4m/Zt8CQMJPJcBJMe0/WkDUv+PkSEBj2YDAyT9yQOsRQ8AOiKi+6PpyQP85hcANtO0/
lpc_rms=-21.59
pitch_keycenter=b3
sample=Soloviolin2_tremolo_MF_B3.opus
</region>

<region>
hikey=b4
hivel=127
lokey=a#4
lovel=1
lpc=Nwq7QBI9UsGjgm5BsjA/wYTvD0GXgtvAeBecQNxsNsCYSi9AaC9MwBJBEUCntCO/o/pxvVEBZD8j1pi/L/+LP1bI8b588kW+G2T2Pv9uzD7yIoK/OMF3vk1jtD9K+Gi/
lpc_rms=-23.51
pitch_keycenter=b4
sample=Soloviolin2_tremolo_MF_B4.opus
</region>

<region>
hikey=b5
hivel=127
lokey=a#5
lovel=1
lpc=YrsAQXgVEMEJCwNBvc2swOcPXEAFmi6/K8QvPZ6iTD9Nrp6+j0xzPttE6j9XK0rAgPqQQLS8d8CCq1pAtIRfv363N77gxoo/7AwKv3fNPz8Os3Y/rGERwOdgk0BuQKjA
lpc_rms=-19.07
pitch_keycenter=b5
sample=Soloviolin2_tremolo_MF_B5.opus
</region>

<region>
hikey=E7
hivel=127
lokey=a#6
lovel=1
lpc=cKsNQQZZ/sBc48xA+FRhwAZ1DUBzaJ8/5pTyv1ZIWD/UBaI+yoL2PxiYlb8ODPc/kBQIwXZb9EDu8pPAcEsuQIqT8L4gP86/Fw4xQAbJi7551sI9xd6Rv+mYlT91cBm/
lpc_rms=-22.58
pitch_keycenter=B6
sample=Soloviolin2_tremolo_MF_B6.opus
</region>

<region>
hikey=c#4
hivel=127
lokey=c4
lovel=1
lpc=HPkIQpUcycJvKwFDd9XMwuZrg0IrcD3CxzsDQu4yi8HBhClBLlwywY98Q0Fi9g/BN+iPQPoYNkAmnfXAOYvSQETnS8DXa8g/WnaSPxoBmsCD6fG+YQsCQfzF/MCQnzhA
lpc_rms=-14.25
pitch_keycenter=c#4
sample=Soloviolin2_tremolo_MF_C#4.opus
</region>

<region>
hikey=c#5
hivel=127
lokey=c5
lovel=1
lpc=FvWJQZEeJMI34EBCvoUiwq9H9kGxT7bB2kJkQXrKGcEbxDRB05Iwwfbyg0BIFVZAvul2wOiWKkDbTum/ou0uPz7IIj8hKYM/GeDkv/n0iT/i0yPAE0aDQCtLkcCI41dA
lpc_rms=-14.69
pitch_keycenter=c#5
sample=Soloviolin2_tremolo_MF_C#5.opus
</region>

<region>
hikey=c#6
hivel=127
lokey=c6
lovel=1
lpc=jJq2QdeI1MHFhqBBf3lewTZUNkE55gTBjwIQQdjW4MDJFeZAAreQwNpDqkDpN5jAGEToQL/Uy8BqQ+dA1sKywNkY80DN5+zAETwaQc2VF8FrhlZBEM+zwT/hBkELAas/
lpc_rms=-11.40
pitch_keycenter=c#6
sample=Soloviolin2_tremolo_MF_C#6.opus
</region>

<region>
hikey=d#4
hivel=127
lokey=d4
lovel=1
lpc=gPVrQZ71IsJk4kBC0JUCwnZAjEEcqmrBqSZRQRro6MCmjFRASnBPwDgXU0AAnQzAafpcP7eXTz9nF5+/gJxpP4OCsb7AFBo/iwjmvimHD8AkvjNAu7t4P5eOhsDUIyJA
lpc_rms=-21.46
pitch_keycenter=d#4
sample=Soloviolin2_tremolo_MF_D#4.opus
</region>

<region>
hikey=d#5
hivel=127
lokey=d5
lovel=1
lpc=EZ3LQBm/bMHuO4hBx5c8wRG000AVC2vAzNKkP8QcN7+jrRhAOpAHwMuUir85BolAR+VxwDQNEUDaDy2/k3vSvuFopT+V1Am/FpKqv4gLAEA+v+C/xFQHQHNYEcCxOb8/
lpc_rms=-20.62
pitch_keycenter=d#5
sample=Soloviolin2_tremolo_MF_D#5.opus
</region>

<region>
hikey=d#6
hivel=127
lokey=d6
lovel=1
lpc=AdZGQdN+aMGJnTBBciTHwCKSYEDkABnAfOYSQPaAzb968wRAUv3Tv3ucCEBXKdy/o/wJQKQE6r8EzBxAb7sEwMDpQ0BC21fAiDSuQLeic8E+ykhBDOW+wCqDxT94wuQ+
lpc_rms=-19.49
pitch_keycenter=d#6
sample=Soloviolin2_tremolo_MF_D#6.opus
</region>

<region>
hikey=f4
hivel=127
lokey=e4
lovel=1
lpc=fQQrQf+W8MFRth5C9SsHwufut0GWP3zBvz0qQVkuAsH3mBlB4goqwfnv90Cc90LA3wjyPacmqj87QArALnn5P0+vEr+uKEA/gRwDwKmNJUBvwJHASBrRQKmRtcDpSBdA
lpc_rms=-24.09
pitch_keycenter=f4
sample=Soloviolin2_tremolo_MF_F4.opus
</region>

<region>
hikey=f5
hivel=127
lokey=e5
lovel=1
lpc=bz26QP4MSMFaTGFBHkojwRTQt0AS6dG/4le5vxc9GkAZN+278CXWv2ZymD8figE+EjBDvyr6tT4y01A/u0uvv9jhCkDg3H2/khwDv4wQEED11yPAB1LuP7iTfr/GgTs/
lpc_rms=-22.50
pitch_keycenter=f5
sample=Soloviolin2_tremolo_MF_F5.opus
</region>

<region>
hikey=f6
hivel=127
lokey=e6
lovel=1
lpc=7mqWQRHdmcHOKklB1iEHwS7mskD5API/Cm6CwCZ4tbyq2J4/nWKcPRMMQD/9mOM+nFE/PyZ6OTzZpsw/HPadv0EafEBDsJ/BWwCHQUrD58Brf4JAJgU9vv8epMBj88VA
lpc_rms=-18.52
pitch_keycenter=f6
sample=Soloviolin2_tremolo_MF_F6.opus
</region>

<region>
hivel=127
key=g3
lovel=1
lpc=K7ITQVvQ0MFrkwlCNJrXwYTYZ0GMlAjBJc77QG6A4cDtpqFAacVOwHj4/j/v5Na/bsG2P8d6QT5y/56/yU4Pu7nuD0BeiCrAZN7HP/hD/77x7Qo/JLEVv62XlD7n45e9
lpc_rms=-24.94
sample=Soloviolin2_tremolo_MF_G3.opus
</region>

<region>
hikey=g4
hivel=127
lokey=f#4
lovel=1
lpc=ZzkWQR9xysHQTfxB6w7DwWX/e0H2mjfBXU/XQB4H878W77Y/6d1+wBpUMkDlhjM/wyjUv93vJT/WTB+/+LPRP6oYbL9+0Lq/uj17QPrDb8Bz+gZApkowv3NZLD5sLhC+
lpc_rms=-22.67
pitch_keycenter=g4
sample=Soloviolin2_tremolo_MF_G4.opus
</region>

<region>
hikey=g5
hivel=127
lokey=f#5
lovel=1
lpc=Nv3OQIhBRcE9JVxBtA03wT6cFEHqw5HAvQWMP+gW2b3bfmk/Oxf7vgDvqz4NKkY/IvyRvzkP0j+IQ5i9xbSFv2cZHkCl0cq/+1qDPuYrO0DbspbA3BS5QH/Ml8B4/ytA
lpc_rms=-20.84
pitch_keycenter=g5
sample=Soloviolin2_tremolo_MF_G5.opus
</region>

<region>
hikey=g6
hivel=127
lokey=f#6
lovel=1
lpc=zNCFQdn4UMFlH7lAIwx+v6v3LL+gdbZAt+V9wOJuAsBSkvY/hr3XPvprQj9/syO8torpP1pTyb8cxplAwbuBwb2c1EAW/CRAOZt7wAAqnUBnNLrAy1ILQJwfjUDXjY2/
lpc_rms=-18.07
pitch_keycenter=g6
sample=Soloviolin2_tremolo_MF_G6.opus
</region>
</group>

<group>
group_label=FF
lpc_hicc1=127
lpc_locc1=85

<region>
hikey=a3
hivel=127
lokey=g#3
lovel=1
lpc=hdXxQAXvrsHJG/9BTg70wZf5skExCV7B6N/XQH30Dr9nLR3Ak7JgPxxh+D9xOWLAjuyTQB2axMAR6eJAez3LwFR3n0AuJG3AfYMPQPUv6r7o0um+w8ITP4O3Ub6sFQ49
lpc_rms=-22.43
pitch_keycenter=a3
sample=Soloviolin2_tremolo_FF_A3.opus
</region>

<region>
hikey=a4
hivel=127
lokey=g#4
lovel=1
lpc=mbfYQI6Qk8HSG8tBKRDAwV7xlEEY5kjBRZLbQHxzScChLPU/+Eavv3i3Tz/OpOS/KMiRQI3Zw8BNF8BAt7qxwDJOkEBdDUjAve4KQHtrn7/jGIA+hrBEPhTnlb33Uiw+
lpc_rms=-18.52
pitch_keycenter=a4
sample=Soloviolin2_tremolo_FF_A4.opus
</region>

<region>
hikey=a5
hivel=127
lokey=g#5
lovel=1
lpc=geyzQM493cB36fJArxSVwDRIi0BExgbA/nc0QK0rrL97Lbc/oLUtPzedWj+Aroe/dbM2QEs+qr+gJBdAsgrTPRpXSr9XOkNASkmvv5juzT9epvC9Ga6rP7CCIb9TCQRA
lpc_rms=-13.97
pitch_keycenter=a5
sample=Soloviolin2_tremolo_FF_A5.opus
</region>

<region>
hikey=a6
hivel=127
lokey=g#6
lovel=1
lpc=4GjNQD0PmsAPvShAM+McPqJkwr4IAAxAM010vwmJRT8NJw89Pv+cPUk/oz+8daK+iHgKQEvQVMA/SdG/RzGLQHtsS8AUlhNALb5cv54ivr68Lq8/HuzfvkMMiT+yo3a+
lpc_rms=-19.57
pitch_keycenter=a6
sample=Soloviolin2_tremolo_FF_A6.opus
</region>

<region>
hikey=b3
hivel=127
lokey=a#3
lovel=1
lpc=DaQPQdOy18FjJiBCBjgawgFB3kGX3o/BAlYyQU8poMA5CGW+5IMNQKzXEsCC58E/+ywqP7W9eMDTYNRAj7T8wJQdB0FDUvjAI6CtQPehH8C9NgY/XqwTPo6FgL5Yrpc9
lpc_rms=-19.48
pitch_keycenter=b3
sample=Soloviolin2_tremolo_FF_B3.opus
</region>

<region>
hikey=b4
hivel=127
lokey=a#4
lovel=1
lpc=1JsDQSQgv8Hw6wxCbwMNwlri4EGowqHBrqVdQb0bAsGb6KBA+VGuwLs12UAm8NvAI+/CQIKstcDsjcFA5IvJwLgBtkCrXmzAB9gAQPIyx7463rO/VUP8P+jhmL94za0+
lpc_rms=-18.97
pitch_keycenter=b4
sample=Soloviolin2_tremolo_FF_B4.opus
</region>

<region>
hikey=b5
hivel=127
lokey=a#5
lovel=1
lpc=CvaUQBaDjMB6P4pAIoM8wIBQQkBHPQLAQs4jQFsCy7+zhdo/hrtLv4bcyj+SFaG/dbkFQNVaqr8tp9U/+YtEv4I3wD+8c6S/FrMUQGBn6r9BJCVASNYOwNMLVUCzc0HA
lpc_rms=-18.29
pitch_keycenter=b5
sample=Soloviolin2_tremolo_FF_B5.opus
</region>

<region>
hikey=E7
hivel=127
lokey=a#6
lovel=1
lpc=7crCQNAvq8B8xIZAl3EGwOv76z9Lgp0+V0kzPnRaAz69xc4+ClOoP6Mzib4s4vE/rrGzwGdBpkCkLCHAn0TPPy8Hn76SQtK+v9xsPy0T2D3nNvQ+GpIxvyS/JT9GRCm/
lpc_rms=-19.83
pitch_keycenter=B6
sample=Soloviolin2_tremolo_FF_B6.opus
</region>

<region>
hikey=c#4
hivel=127
lokey=c4
lovel=1
lpc=6DRiQRcMKcKBh3JCPQxbwuqkDkJ+lavBB/ZQQeYcsMAN5Ao/TaZtwJDmFkHlvjjBF4QsQTChMMEiAUtBTGtCwQWqM0HrRyDB9P7zQIAihsBE1xxAaXUOwICa4j/kiU6/
lpc_rms=-15.93
pitch_keycenter=c#4
sample=Soloviolin2_tremolo_FF_C#4.opus
</region>

<region>
hikey=c#5
hivel=127
lokey=c5
lovel=1
lpc=/YxTQSu6CcKDKTxCov0uwt8SBUIVmLrB7rhmQTfCy8DUz2E/5fmmPjWe5L2UvhbAdRC1QLkMBsFJszNBk1FGwTk8R0Fy4A/Br2WWQGckyL7BXri/eAm0P1rUE78pJ9E+
lpc_rms=-13.90
pitch_keycenter=c#5
sample=Soloviolin2_tremolo_FF_C#5.opus
</region>

<region>
hikey=c#6
hivel=127
lokey=c6
lovel=1
lpc=Z5waQakA9sBEKklA9FDRv1dh2D/MI9W+KV+HP6DSdD4OD/89ur1SP5UcFT/qIBW+ifeFP+L07b272nA/I8YuPlydBT/zGNg9yC68P5qEur/LrVVAw0nLwKgxar/kfldA
lpc_rms=-17.63
pitch_keycenter=c#6
sample=Soloviolin2_tremolo_FF_C#6.opus
</region>

<region>
hikey=d#4
hivel=127
lokey=d4
lovel=1
lpc=hP4UQX6R18GJBxxConsVwkhw4EHFLqLBREVlQXmHCMG97o9ANSJ7wLobSUDXkY+/pa0nvc3Pj78cNy1Ad0xRwDtBZUAJomTAnlM/QCbtoL8NAfg9MyDPPZaShT0f/P68
lpc_rms=-16.89
pitch_keycenter=d#4
sample=Soloviolin2_tremolo_FF_D#4.opus
</region>

<region>
hikey=d#5
hivel=127
lokey=d5
lovel=1
lpc=+zX7QBHblcH/psRBgceswRRifEH7CB3BcUCqQDnfLsCGTBhALrUZwJHq9T+1ayHAVxdBQLipCcAACak/KCTDv6ceK0CFMlHAOOiPQFpTXsCXtwFA2mPzvpVqHT80C8a8
lpc_rms=-17.71
pitch_keycenter=d#5
sample=Soloviolin2_tremolo_FF_D#5.opus
</region>

<region>
hikey=d#6
hivel=127
lokey=d6
lovel=1
lpc=UhYMQSwFCsHdMtlA9IGVwN53XkApUqe/QHXFP18YV78VAJc//IGVvjgthz94WWe/H8PXP/SnUb8QVIM/fEelvhSdrz/3icy/SnlJQH14FMHmks1A4nFMwBp2CkB6Oma/
lpc_rms=-17.34
pitch_keycenter=d#6
sample=Soloviolin2_tremolo_FF_D#6.opus
</region>

<region>
hikey=f4
hivel=127
lokey=e4
lovel=1
lpc=+lo1QTo4BcLp6UVCeCZCwjUhDUJAIazBCYw2QacRocDnaE9Al7uywMPj6EBt5uHAHS/PQFJX5cCE/AJBBB4JwdcoAkEshMbAWJVzQLVz1b8+1dW9DVSxP1gH0r+n7ok/
lpc_rms=-18.15
pitch_keycenter=f4
sample=Soloviolin2_tremolo_FF_F4.opus
</region>

<region>
hikey=f5
hivel=127
lokey=e5
lovel=1
lpc=dJ5sQI5ppsAlxJ9AjjNPwC0KEEBVzvW+fZUHPhi98j0kKsi+f8AqP4vOwr783BW9UOSuPgoZT79306I/Ap4Rvw7Zhz5TmZQ/cwOav0+lxz8kVAa/GIFRPs2/YD7FMyM9
lpc_rms=-16.46
pitch_keycenter=f5
sample=Soloviolin2_tremolo_FF_F5.opus
</region>

<region>
hikey=f6
hivel=127
lokey=e6
lovel=1
lpc=Rf0QQURYEsH1p9JArn01wGdq5z817Kw/KB1Gv+0ppj4+fBk/u2m9PiSp7T468eA+eKD1PkJ4mD4wl0c/7yJTvl4J5j86uhPBRJAGQQ8lg8ACWaw/c/ZcPnPj8b/pM8o/
lpc_rms=-19.41
pitch_keycenter=f6
sample=Soloviolin2_tremolo_FF_F6.opus
</region>

<region>
hivel=127
key=g3
lovel=1
lpc=tZ78QCzku8G4ZQ1CjSIOwvpD4EEp7pnBvnIvQfkqdcA950Q/xLsVwHNZb0CRujbA8vEsQCSYm8C7091AZwLXwJE4wEC9ebPAET2EQAavyL8h5rA9+rVNveGN4j5E466+
lpc_rms=-21.27
sample=Soloviolin2_tremolo_FF_G3.opus
</region>

<region>
hikey=g4
hivel=127
lokey=f#4
lovel=1
lpc=kvL5QPLUq8HKwPRBPVPxwY7zvkE3fIbBZekhQVBmesAj3xi8+mcNP6dE1j63YQXAVp5xQLqotcBi5NNApZnPwO+uukArnZfAmOB6QP1kHcDHRrA/KWRIv0A1FT61bZ4+
lpc_rms=-17.41
pitch_keycenter=g4
sample=Soloviolin2_tremolo_FF_G4.opus
</region>

<region>
hikey=g5
hivel=127
lokey=f#5
lovel=1
lpc=4BkFQClFKcDmtC9ALqTxv8XNyz80b0a/qqfrPrMqaL54SCI+EbAcPmtWzrtYfJi9XabdPt4qXb2n4Ay+1o4pPxD3Gb8DUzU/QqYHPKesv72ws74+7qaJuqFGUbyebXA9
lpc_rms=-19.28
pitch_keycenter=g5
sample=Soloviolin2_tremolo_FF_G5.opus
</region>

<region>
hikey=g6
hivel=127
lokey=f#6
lovel=1
lpc=VojuQB2AvMAUVoZAZK6pv6QUWj/P1mk/IF4pP67qcL3kkwo+THlJPhuFiT/53xm+xevFP44xQb8A6yZA+qnrwJRciUBhJDK/T7M8v/d/zD9TGa+//vkAP3qcCrzSams/
lpc_rms=-21.81
pitch_keycenter=g6
sample=Soloviolin2_tremolo_FF_G6.opus
</region>
</group>